G04 #@! TF.FileFunction,Soldermask,Bot*
%FSLAX46Y46*%
G04 Gerber Fmt 4.6, Leading zero omitted, Abs format (unit mm)*
G04 Created by KiCad (PCBNEW 4.0.6) date Wed Jun 28 00:25:45 2017*
%MOMM*%
%LPD*%
G01*
G04 APERTURE LIST*
%ADD10C,0.100000*%
%ADD11R,2.127200X2.127200*%
%ADD12O,2.127200X2.127200*%
%ADD13R,2.100000X2.100000*%
%ADD14O,2.100000X2.100000*%
%ADD15R,2.000000X2.000000*%
%ADD16C,2.000000*%
%ADD17R,2.200000X2.200000*%
%ADD18C,2.200000*%
%ADD19C,3.400000*%
%ADD20R,3.400000X3.400000*%
%ADD21O,2.000000X2.000000*%
%ADD22O,2.200000X2.200000*%
%ADD23C,6.400000*%
%ADD24C,1.000000*%
G04 APERTURE END LIST*
D10*
D11*
X69850000Y-76200000D03*
D12*
X72390000Y-76200000D03*
X69850000Y-78740000D03*
X72390000Y-78740000D03*
X69850000Y-81280000D03*
X72390000Y-81280000D03*
X69850000Y-83820000D03*
X72390000Y-83820000D03*
X69850000Y-86360000D03*
X72390000Y-86360000D03*
X69850000Y-88900000D03*
X72390000Y-88900000D03*
X69850000Y-91440000D03*
X72390000Y-91440000D03*
X69850000Y-93980000D03*
X72390000Y-93980000D03*
D11*
X171450000Y-76200000D03*
D12*
X173990000Y-76200000D03*
X171450000Y-78740000D03*
X173990000Y-78740000D03*
X171450000Y-81280000D03*
X173990000Y-81280000D03*
X171450000Y-83820000D03*
X173990000Y-83820000D03*
X171450000Y-86360000D03*
X173990000Y-86360000D03*
X171450000Y-88900000D03*
X173990000Y-88900000D03*
X171450000Y-91440000D03*
X173990000Y-91440000D03*
X171450000Y-93980000D03*
X173990000Y-93980000D03*
D11*
X120650000Y-76200000D03*
D12*
X123190000Y-76200000D03*
X120650000Y-78740000D03*
X123190000Y-78740000D03*
X120650000Y-81280000D03*
X123190000Y-81280000D03*
X120650000Y-83820000D03*
X123190000Y-83820000D03*
X120650000Y-86360000D03*
X123190000Y-86360000D03*
X120650000Y-88900000D03*
X123190000Y-88900000D03*
X120650000Y-91440000D03*
X123190000Y-91440000D03*
X120650000Y-93980000D03*
X123190000Y-93980000D03*
D11*
X133350000Y-76200000D03*
D12*
X135890000Y-76200000D03*
X133350000Y-78740000D03*
X135890000Y-78740000D03*
X133350000Y-81280000D03*
X135890000Y-81280000D03*
X133350000Y-83820000D03*
X135890000Y-83820000D03*
X133350000Y-86360000D03*
X135890000Y-86360000D03*
X133350000Y-88900000D03*
X135890000Y-88900000D03*
X133350000Y-91440000D03*
X135890000Y-91440000D03*
X133350000Y-93980000D03*
X135890000Y-93980000D03*
D11*
X146050000Y-76200000D03*
D12*
X148590000Y-76200000D03*
X146050000Y-78740000D03*
X148590000Y-78740000D03*
X146050000Y-81280000D03*
X148590000Y-81280000D03*
X146050000Y-83820000D03*
X148590000Y-83820000D03*
X146050000Y-86360000D03*
X148590000Y-86360000D03*
X146050000Y-88900000D03*
X148590000Y-88900000D03*
X146050000Y-91440000D03*
X148590000Y-91440000D03*
X146050000Y-93980000D03*
X148590000Y-93980000D03*
D11*
X158750000Y-76200000D03*
D12*
X161290000Y-76200000D03*
X158750000Y-78740000D03*
X161290000Y-78740000D03*
X158750000Y-81280000D03*
X161290000Y-81280000D03*
X158750000Y-83820000D03*
X161290000Y-83820000D03*
X158750000Y-86360000D03*
X161290000Y-86360000D03*
X158750000Y-88900000D03*
X161290000Y-88900000D03*
X158750000Y-91440000D03*
X161290000Y-91440000D03*
X158750000Y-93980000D03*
X161290000Y-93980000D03*
D13*
X171450000Y-76200000D03*
D14*
X173990000Y-76200000D03*
X171450000Y-78740000D03*
X173990000Y-78740000D03*
X171450000Y-81280000D03*
X173990000Y-81280000D03*
X171450000Y-83820000D03*
X173990000Y-83820000D03*
X171450000Y-86360000D03*
X173990000Y-86360000D03*
X171450000Y-88900000D03*
X173990000Y-88900000D03*
X171450000Y-91440000D03*
X173990000Y-91440000D03*
X171450000Y-93980000D03*
X173990000Y-93980000D03*
D13*
X72390000Y-76200000D03*
D14*
X69850000Y-76200000D03*
X72390000Y-78740000D03*
X69850000Y-78740000D03*
X72390000Y-81280000D03*
X69850000Y-81280000D03*
X72390000Y-83820000D03*
X69850000Y-83820000D03*
X72390000Y-86360000D03*
X69850000Y-86360000D03*
X72390000Y-88900000D03*
X69850000Y-88900000D03*
X72390000Y-91440000D03*
X69850000Y-91440000D03*
X72390000Y-93980000D03*
X69850000Y-93980000D03*
D15*
X149072600Y-103936800D03*
D16*
X149072600Y-101436800D03*
D15*
X165328600Y-103936800D03*
D16*
X165328600Y-101436800D03*
D17*
X111125000Y-103251000D03*
D18*
X113665000Y-103251000D03*
D17*
X97409000Y-103251000D03*
D18*
X94869000Y-103251000D03*
D17*
X81153000Y-103251000D03*
D18*
X78613000Y-103251000D03*
D19*
X133273800Y-103835200D03*
X138353800Y-103835200D03*
D20*
X128193800Y-103835200D03*
D19*
X143433800Y-103835200D03*
D16*
X116713000Y-101600000D03*
D21*
X124333000Y-101600000D03*
D16*
X100457000Y-101600000D03*
D21*
X108077000Y-101600000D03*
D16*
X84201000Y-101600000D03*
D21*
X91821000Y-101600000D03*
D17*
X159740600Y-102031800D03*
D22*
X157200600Y-102031800D03*
X154660600Y-102031800D03*
D11*
X82550000Y-76200000D03*
D12*
X85090000Y-76200000D03*
X82550000Y-78740000D03*
X85090000Y-78740000D03*
X82550000Y-81280000D03*
X85090000Y-81280000D03*
X82550000Y-83820000D03*
X85090000Y-83820000D03*
X82550000Y-86360000D03*
X85090000Y-86360000D03*
X82550000Y-88900000D03*
X85090000Y-88900000D03*
X82550000Y-91440000D03*
X85090000Y-91440000D03*
X82550000Y-93980000D03*
X85090000Y-93980000D03*
D11*
X95250000Y-76200000D03*
D12*
X97790000Y-76200000D03*
X95250000Y-78740000D03*
X97790000Y-78740000D03*
X95250000Y-81280000D03*
X97790000Y-81280000D03*
X95250000Y-83820000D03*
X97790000Y-83820000D03*
X95250000Y-86360000D03*
X97790000Y-86360000D03*
X95250000Y-88900000D03*
X97790000Y-88900000D03*
X95250000Y-91440000D03*
X97790000Y-91440000D03*
X95250000Y-93980000D03*
X97790000Y-93980000D03*
D11*
X107950000Y-76200000D03*
D12*
X110490000Y-76200000D03*
X107950000Y-78740000D03*
X110490000Y-78740000D03*
X107950000Y-81280000D03*
X110490000Y-81280000D03*
X107950000Y-83820000D03*
X110490000Y-83820000D03*
X107950000Y-86360000D03*
X110490000Y-86360000D03*
X107950000Y-88900000D03*
X110490000Y-88900000D03*
X107950000Y-91440000D03*
X110490000Y-91440000D03*
X107950000Y-93980000D03*
X110490000Y-93980000D03*
D23*
X71120000Y-104140000D03*
D24*
X73370000Y-104140000D03*
X72710990Y-105730990D03*
X71120000Y-106390000D03*
X69529010Y-105730990D03*
X68870000Y-104140000D03*
X69529010Y-102549010D03*
X71120000Y-101890000D03*
X72710990Y-102549010D03*
D23*
X71120000Y-66040000D03*
D24*
X73370000Y-66040000D03*
X72710990Y-67630990D03*
X71120000Y-68290000D03*
X69529010Y-67630990D03*
X68870000Y-66040000D03*
X69529010Y-64449010D03*
X71120000Y-63790000D03*
X72710990Y-64449010D03*
D23*
X172720000Y-104140000D03*
D24*
X174970000Y-104140000D03*
X174310990Y-105730990D03*
X172720000Y-106390000D03*
X171129010Y-105730990D03*
X170470000Y-104140000D03*
X171129010Y-102549010D03*
X172720000Y-101890000D03*
X174310990Y-102549010D03*
D23*
X172720000Y-66040000D03*
D24*
X174970000Y-66040000D03*
X174310990Y-67630990D03*
X172720000Y-68290000D03*
X171129010Y-67630990D03*
X170470000Y-66040000D03*
X171129010Y-64449010D03*
X172720000Y-63790000D03*
X174310990Y-64449010D03*
M02*
