G04 #@! TF.FileFunction,Legend,Bot*
%FSLAX46Y46*%
G04 Gerber Fmt 4.6, Leading zero omitted, Abs format (unit mm)*
G04 Created by KiCad (PCBNEW 4.0.6) date Wed Jun 28 00:25:45 2017*
%MOMM*%
%LPD*%
G01*
G04 APERTURE LIST*
%ADD10C,0.100000*%
%ADD11C,0.300000*%
G04 APERTURE END LIST*
D10*
D11*
X145692571Y-107803143D02*
X144549714Y-107803143D01*
X145121143Y-108374571D02*
X145121143Y-107231714D01*
X143121142Y-106874571D02*
X143835428Y-106874571D01*
X143906857Y-107588857D01*
X143835428Y-107517429D01*
X143692571Y-107446000D01*
X143335428Y-107446000D01*
X143192571Y-107517429D01*
X143121142Y-107588857D01*
X143049714Y-107731714D01*
X143049714Y-108088857D01*
X143121142Y-108231714D01*
X143192571Y-108303143D01*
X143335428Y-108374571D01*
X143692571Y-108374571D01*
X143835428Y-108303143D01*
X143906857Y-108231714D01*
X142621143Y-106874571D02*
X142121143Y-108374571D01*
X141621143Y-106874571D01*
X141326856Y-107803143D02*
X140183999Y-107803143D01*
X140755428Y-108374571D02*
X140755428Y-107231714D01*
X138683999Y-108374571D02*
X139541142Y-108374571D01*
X139112570Y-108374571D02*
X139112570Y-106874571D01*
X139255427Y-107088857D01*
X139398285Y-107231714D01*
X139541142Y-107303143D01*
X138112571Y-107017429D02*
X138041142Y-106946000D01*
X137898285Y-106874571D01*
X137541142Y-106874571D01*
X137398285Y-106946000D01*
X137326856Y-107017429D01*
X137255428Y-107160286D01*
X137255428Y-107303143D01*
X137326856Y-107517429D01*
X138183999Y-108374571D01*
X137255428Y-108374571D01*
X136826857Y-106874571D02*
X136326857Y-108374571D01*
X135826857Y-106874571D01*
X134238857Y-106946000D02*
X134381714Y-106874571D01*
X134596000Y-106874571D01*
X134810285Y-106946000D01*
X134953143Y-107088857D01*
X135024571Y-107231714D01*
X135096000Y-107517429D01*
X135096000Y-107731714D01*
X135024571Y-108017429D01*
X134953143Y-108160286D01*
X134810285Y-108303143D01*
X134596000Y-108374571D01*
X134453143Y-108374571D01*
X134238857Y-108303143D01*
X134167428Y-108231714D01*
X134167428Y-107731714D01*
X134453143Y-107731714D01*
X133524571Y-108374571D02*
X133524571Y-106874571D01*
X132667428Y-108374571D01*
X132667428Y-106874571D01*
X131953142Y-108374571D02*
X131953142Y-106874571D01*
X131595999Y-106874571D01*
X131381714Y-106946000D01*
X131238856Y-107088857D01*
X131167428Y-107231714D01*
X131095999Y-107517429D01*
X131095999Y-107731714D01*
X131167428Y-108017429D01*
X131238856Y-108160286D01*
X131381714Y-108303143D01*
X131595999Y-108374571D01*
X131953142Y-108374571D01*
X130658856Y-107803143D02*
X129515999Y-107803143D01*
X128015999Y-108374571D02*
X128873142Y-108374571D01*
X128444570Y-108374571D02*
X128444570Y-106874571D01*
X128587427Y-107088857D01*
X128730285Y-107231714D01*
X128873142Y-107303143D01*
X127444571Y-107017429D02*
X127373142Y-106946000D01*
X127230285Y-106874571D01*
X126873142Y-106874571D01*
X126730285Y-106946000D01*
X126658856Y-107017429D01*
X126587428Y-107160286D01*
X126587428Y-107303143D01*
X126658856Y-107517429D01*
X127515999Y-108374571D01*
X126587428Y-108374571D01*
X126158857Y-106874571D02*
X125658857Y-108374571D01*
X125158857Y-106874571D01*
M02*
