M48
INCH,TZ
T1C0.013
T2C0.020
T3C0.031
T4C0.035
T5C0.039
T6C0.040
T7C0.060
T8C0.118
%
G90
G05
T1
X30500Y-35000
X35500Y-32000
X36000Y-35000
X40500Y-33000
X45500Y-35000
X50500Y-35000
X55500Y-33000
X59750Y-35000
X61150Y-32030
X65500Y-35000
T2
X27114Y-26000
X27114Y-41000
X27374Y-25374
X27374Y-26626
X27374Y-40374
X27374Y-41626
X28000Y-25114
X28000Y-26886
X28000Y-40114
X28000Y-41886
X28626Y-25374
X28626Y-26626
X28626Y-40374
X28626Y-41626
X28886Y-26000
X28886Y-41000
X67114Y-26000
X67114Y-41000
X67374Y-25374
X67374Y-26626
X67374Y-40374
X67374Y-41626
X68000Y-25114
X68000Y-26886
X68000Y-40114
X68000Y-41886
X68626Y-25374
X68626Y-26626
X68626Y-40374
X68626Y-41626
X68886Y-26000
X68886Y-41000
T3
X33150Y-40000
X36150Y-40000
X39550Y-40000
X42550Y-40000
X45950Y-40000
X48950Y-40000
X58690Y-39936
X58690Y-40920
X65090Y-39936
X65090Y-40920
T4
X30950Y-40650
X31950Y-40650
X37350Y-40650
X38350Y-40650
X43750Y-40650
X44750Y-40650
T5
X27500Y-30000
X27500Y-31000
X27500Y-32000
X27500Y-33000
X27500Y-34000
X27500Y-35000
X27500Y-36000
X27500Y-37000
X28500Y-30000
X28500Y-31000
X28500Y-32000
X28500Y-33000
X28500Y-34000
X28500Y-35000
X28500Y-36000
X28500Y-37000
X60890Y-40170
X61890Y-40170
X62890Y-40170
X67500Y-30000
X67500Y-31000
X67500Y-32000
X67500Y-33000
X67500Y-34000
X67500Y-35000
X67500Y-36000
X67500Y-37000
X68500Y-30000
X68500Y-31000
X68500Y-32000
X68500Y-33000
X68500Y-34000
X68500Y-35000
X68500Y-36000
X68500Y-37000
T6
X27500Y-30000
X27500Y-31000
X27500Y-32000
X27500Y-33000
X27500Y-34000
X27500Y-35000
X27500Y-36000
X27500Y-37000
X28500Y-30000
X28500Y-31000
X28500Y-32000
X28500Y-33000
X28500Y-34000
X28500Y-35000
X28500Y-36000
X28500Y-37000
X32500Y-30000
X32500Y-31000
X32500Y-32000
X32500Y-33000
X32500Y-34000
X32500Y-35000
X32500Y-36000
X32500Y-37000
X33500Y-30000
X33500Y-31000
X33500Y-32000
X33500Y-33000
X33500Y-34000
X33500Y-35000
X33500Y-36000
X33500Y-37000
X37500Y-30000
X37500Y-31000
X37500Y-32000
X37500Y-33000
X37500Y-34000
X37500Y-35000
X37500Y-36000
X37500Y-37000
X38500Y-30000
X38500Y-31000
X38500Y-32000
X38500Y-33000
X38500Y-34000
X38500Y-35000
X38500Y-36000
X38500Y-37000
X42500Y-30000
X42500Y-31000
X42500Y-32000
X42500Y-33000
X42500Y-34000
X42500Y-35000
X42500Y-36000
X42500Y-37000
X43500Y-30000
X43500Y-31000
X43500Y-32000
X43500Y-33000
X43500Y-34000
X43500Y-35000
X43500Y-36000
X43500Y-37000
X47500Y-30000
X47500Y-31000
X47500Y-32000
X47500Y-33000
X47500Y-34000
X47500Y-35000
X47500Y-36000
X47500Y-37000
X48500Y-30000
X48500Y-31000
X48500Y-32000
X48500Y-33000
X48500Y-34000
X48500Y-35000
X48500Y-36000
X48500Y-37000
X52500Y-30000
X52500Y-31000
X52500Y-32000
X52500Y-33000
X52500Y-34000
X52500Y-35000
X52500Y-36000
X52500Y-37000
X53500Y-30000
X53500Y-31000
X53500Y-32000
X53500Y-33000
X53500Y-34000
X53500Y-35000
X53500Y-36000
X53500Y-37000
X57500Y-30000
X57500Y-31000
X57500Y-32000
X57500Y-33000
X57500Y-34000
X57500Y-35000
X57500Y-36000
X57500Y-37000
X58500Y-30000
X58500Y-31000
X58500Y-32000
X58500Y-33000
X58500Y-34000
X58500Y-35000
X58500Y-36000
X58500Y-37000
X62500Y-30000
X62500Y-31000
X62500Y-32000
X62500Y-33000
X62500Y-34000
X62500Y-35000
X62500Y-36000
X62500Y-37000
X63500Y-30000
X63500Y-31000
X63500Y-32000
X63500Y-33000
X63500Y-34000
X63500Y-35000
X63500Y-36000
X63500Y-37000
X67500Y-30000
X67500Y-31000
X67500Y-32000
X67500Y-33000
X67500Y-34000
X67500Y-35000
X67500Y-36000
X67500Y-37000
X68500Y-30000
X68500Y-31000
X68500Y-32000
X68500Y-33000
X68500Y-34000
X68500Y-35000
X68500Y-36000
X68500Y-37000
T7
X50470Y-40880
X52470Y-40880
X54470Y-40880
X56470Y-40880
T8
X28000Y-26000
X28000Y-41000
X68000Y-26000
X68000Y-41000
T0
M30
